# xmcd
#
# Track frame offsets:
#	150
#	32048
#	50348
#	76825
#	91628
#	111678
#	141142
#	161239
#	184810
#	201119
#	225068
#	254232
#	271481
#	290602
#	309786
#	324723
#
# Disc length: 4608 seconds
#
# Revision: 1
# Processed by: cddbd v1.5.2PL0 Copyright (c) Steve Scherf et al.
# Submitted via: EasyCDDAExtractor 12.0.6 .1
#
DISCID=e011fe10
DTITLE=Oasis - SOTSOG Sessions
DYEAR=2000
DGENRE=Psychedelic Rock
TTITLE0=Teotihuacan
TTITLE1=Carry Us All
TTITLE2=Who Feels Love?
TTITLE3=Fuckin'In The Bushes
TTITLE4=Little James
TTITLE5=Gas Panic!
TTITLE6=Put Your Money Where Your Mouth Is
TTITLE7=Sunday Morning Call
TTITLE8=I Can See A Liar
TTITLE9=Go Let It Out
TTITLE10=Roll It Over
TTITLE11=Solve My Mystery
TTITLE12=Where Did It All Go Wrong?
TTITLE13=Cigarettes In Hell
TTITLE14=Just Getting Older
TTITLE15=It's Crime
EXTD=
EXTT0=
EXTT1=
EXTT2=
EXTT3=
EXTT4=
EXTT5=
EXTT6=
EXTT7=
EXTT8=
EXTT9=
EXTT10=
EXTT11=
EXTT12=
EXTT13=
EXTT14=
EXTT15=
PLAYORDER=
